<svg width="19" height="19" viewBox="0 0 19 19" fill="none" xmlns="http://www.w3.org/2000/svg">
<path d="M16.5409 1.11768H14.8645V2.79415C14.8645 3.12944 14.5851 3.35297 14.3057 3.35297C14.0262 3.35297 13.7468 3.12944 13.7468 2.79415V1.11768H4.80565V2.79415C4.80565 3.12944 4.52624 3.35297 4.24683 3.35297C3.96742 3.35297 3.68801 3.12944 3.68801 2.79415V1.11768H2.01153C1.1733 1.11768 0.558594 1.84415 0.558594 2.79415V4.80591H18.4409V2.79415C18.4409 1.84415 17.4351 1.11768 16.5409 1.11768ZM0.558594 5.97944V16.2059C0.558594 17.2118 1.1733 17.8824 2.06742 17.8824H16.5968C17.4909 17.8824 18.4968 17.1559 18.4968 16.2059V5.97944H0.558594ZM5.53212 15.3677H4.19095C3.96742 15.3677 3.74389 15.2 3.74389 14.9206V13.5236C3.74389 13.3 3.91153 13.0765 4.19095 13.0765H5.58801C5.81153 13.0765 6.03506 13.2441 6.03506 13.5236V14.9206C5.97918 15.2 5.81153 15.3677 5.53212 15.3677ZM5.53212 10.3383H4.19095C3.96742 10.3383 3.74389 10.1706 3.74389 9.89121V8.49415C3.74389 8.27062 3.91153 8.04709 4.19095 8.04709H5.58801C5.81153 8.04709 6.03506 8.21474 6.03506 8.49415V9.89121C5.97918 10.1706 5.81153 10.3383 5.53212 10.3383ZM10.0027 15.3677H8.60565C8.38212 15.3677 8.15859 15.2 8.15859 14.9206V13.5236C8.15859 13.3 8.32624 13.0765 8.60565 13.0765H10.0027C10.2262 13.0765 10.4498 13.2441 10.4498 13.5236V14.9206C10.4498 15.2 10.2821 15.3677 10.0027 15.3677ZM10.0027 10.3383H8.60565C8.38212 10.3383 8.15859 10.1706 8.15859 9.89121V8.49415C8.15859 8.27062 8.32624 8.04709 8.60565 8.04709H10.0027C10.2262 8.04709 10.4498 8.21474 10.4498 8.49415V9.89121C10.4498 10.1706 10.2821 10.3383 10.0027 10.3383ZM14.4733 15.3677H13.0762C12.8527 15.3677 12.6292 15.2 12.6292 14.9206V13.5236C12.6292 13.3 12.7968 13.0765 13.0762 13.0765H14.4733C14.6968 13.0765 14.9204 13.2441 14.9204 13.5236V14.9206C14.9204 15.2 14.7527 15.3677 14.4733 15.3677ZM14.4733 10.3383H13.0762C12.8527 10.3383 12.6292 10.1706 12.6292 9.89121V8.49415C12.6292 8.27062 12.7968 8.04709 13.0762 8.04709H14.4733C14.6968 8.04709 14.9204 8.21474 14.9204 8.49415V9.89121C14.9204 10.1706 14.7527 10.3383 14.4733 10.3383Z" fill="#CCCCCC"/>
</svg>
