<svg width="27" height="27" viewBox="0 0 27 27" fill="none" xmlns="http://www.w3.org/2000/svg">
<g clip-path="url(#clip0_361_53)">
<path d="M27 20.1195C27 21.6001 25.8242 22.6453 24.3871 22.6453H2.6129C1.17581 22.6453 0 21.6001 0 20.1195V6.88079C0 5.40014 1.17581 4.35498 2.6129 4.35498H24.3871C25.8242 4.35498 27 5.40014 27 6.88079V20.1195Z" fill="#359846"/>
<path d="M2.61328 4.35498H24.3875C25.8246 4.35498 27.0004 5.40014 27.0004 6.88079V20.1195C27.0004 21.6001 25.8681 22.6453 24.431 22.6453" fill="#1E7C2B"/>
<path d="M27 20.0759C27 21.6872 25.8242 22.6453 24.3871 22.6453H2.6129C1.17581 22.6453 0 21.513 0 20.0324M2.6129 4.35498H24.3871C25.8242 4.35498 27 5.40014 27 6.88079V11.7582" fill="#107517"/>
<path d="M13.4996 19.1178C16.6022 19.1178 19.1173 16.6027 19.1173 13.5001C19.1173 10.3975 16.6022 7.88232 13.4996 7.88232C10.397 7.88232 7.88184 10.3975 7.88184 13.5001C7.88184 16.6027 10.397 19.1178 13.4996 19.1178Z" fill="#EC1C24"/>
<path d="M9.18848 9.88549C11.1046 7.44678 14.632 7.27258 17.0707 9.14516C19.2482 10.8435 20.0756 14.6323 17.8111 17.1145" fill="#CE0909"/>
</g>
<defs>
<clipPath id="clip0_361_53">
<rect width="27" height="27" fill="white"/>
</clipPath>
</defs>
</svg>
